<?xml version="1.0" encoding="UTF-8"?>
<svg id="Layer_1" data-name="Layer 1" xmlns="http://www.w3.org/2000/svg" viewBox="0 0 150.04 191.31">
  <defs>
    <style>
      .cls-1 {
        fill: #75564b;
      }

      .cls-2 {
        fill: none;
        stroke: #75564b;
        stroke-miterlimit: 10;
        stroke-width: 10px;
      }
    </style>
  </defs>
  <path class="cls-1" d="m0,7.44L11.39,0l9.42,7.44v67.12l-10.93,7.29H0V7.44Zm0,77.6h9.87l10.93,7.29v68.49l-9.42,6.38-11.39-7.44v-74.72Zm26.27-8.35h97.04l10.48,6.99-10.48,6.83H26.27l-10.48-6.83,10.48-6.99Zm0-12.76L103.72,7.44h15.19v9.42l-78.36,57.25h-14.28v-10.17Zm102.81,28.7l10.63-7.29,10.33,6.83v67.43l-11.85,7.59-9.11-6.23v-68.34Z"/>
  <polyline class="cls-2" points="40.83 130.02 65.37 156.63 107.97 100.3"/>
</svg>